<svg xmlns="http://www.w3.org/2000/svg" xmlns:xlink="http://www.w3.org/1999/xlink" width="155" height="90" viewBox="0 0 155 90">
  <defs>
    <clipPath id="clip-ТМ_Смайлберри">
      <rect width="155" height="90"/>
    </clipPath>
  </defs>
  <g id="ТМ_Смайлберри" clip-path="url(#clip-ТМ_Смайлберри)">
    <g id="Сгруппировать_108" data-name="Сгруппировать 108" transform="translate(-85.95 -144.989)">
      <path id="Контур_337" data-name="Контур 337" d="M103.03,205.1a13.643,13.643,0,0,1-1.372-3.452,22.3,22.3,0,0,1-.708-4.826,28.08,28.08,0,0,1,2.3-11.864c1.948-3.984,4.073-6.552,8.809-6.552a8.178,8.178,0,0,1,5.135,1.9,5.48,5.48,0,0,1,2.3,5,7.409,7.409,0,0,1-.045.974c-.044.62.045,1.637-.84,1.637h-4.958a.332.332,0,0,1-.309-.309.644.644,0,0,0,.087-.177v-.4a1.9,1.9,0,0,0-2.035-2.168,2.167,2.167,0,0,0-1.285.354c-2.391,1.859-2.922,8.854-2.922,11.553,0,1.55.133,5.843,1.992,5.843,1.062,0,2.125-1.948,2.479-2.744.267-.576.885-3.364,1.2-3.364A47.079,47.079,0,0,1,118.7,197a.177.177,0,0,1,.088.177c0,.088-.088.309-.088.354a6.95,6.95,0,0,0-.177.93c-.708,3.32-2.789,7.968-5.755,9.739a6.819,6.819,0,0,1-3.187.929A7.475,7.475,0,0,1,103.03,205.1Z" transform="translate(0 -19.18)" fill="#4b5eaa"/>
      <path id="Контур_338" data-name="Контур 338" d="M274.985,208.916l-1.151-.222c-1.107-.266-2.17-.31-3.32-.486-.045,0-.177,0-.222-.045-.089-.045-.089-.089-.089-.177v-.132a10.7,10.7,0,0,0,.443-1.417l.885-3.321c.708-2.656,1.328-5.4,2.17-8.057.177-.486,1.416-4.25,1.549-4.736,1.195-3.763,2.08-7.614,3.453-11.333.088-.267.177-.31.442-.31a13.116,13.116,0,0,1,1.284.266c1.106.088,2.212.177,3.32.309a11.531,11.531,0,0,1,1.194.09c.045,0,.177.087.177.177l-.044.177v.177l1.9,10.625c.442,2.611.752,5.267,1.15,7.879.444,2.7.93,5.357,1.329,8.058a12.8,12.8,0,0,1,.132,1.283.719.719,0,0,1-.486.575,14.29,14.29,0,0,0-4.117.31,2.846,2.846,0,0,1-.84.177.408.408,0,0,1-.444-.4l-.575-3.321c-.044-.133-.133-.575-.177-.665a.154.154,0,0,0-.089-.044l-.442-.044-4.869-.354h-.132s-.177-.045-.177.044l-.4,1.55c-.088.221-.664,2.212-.708,2.434a6.634,6.634,0,0,1-.266.885.636.636,0,0,1-.442.177C275.251,209.048,275.162,208.916,274.985,208.916Zm6.6-12.617c-.309-1.372-.531-2.7-.8-4.073l-.045-.177a6.281,6.281,0,0,0-.442,1.284c-.443,1.417-.752,2.877-1.2,4.294a14.263,14.263,0,0,0,2.746.088A7.206,7.206,0,0,0,281.58,196.3Z" transform="translate(-114.228 -19.363)" fill="#f47169"/>
      <path id="Контур_339" data-name="Контур 339" d="M345.5,210.132a3.907,3.907,0,0,1-1.239-.31c-4.073-1.5-5.4-8.279-5.623-12l-.484-8.892c0-.033,0-.065,0-.1v-1.058c0-1.638.045-3.319.088-5,.044-.531.31-.531.8-.575.753-.044,1.462-.089,2.214-.089a21.517,21.517,0,0,1,2.39.089c.132,0,.31.133.31.266,0,.486-.132,1.018-.132,1.5a106.819,106.819,0,0,0,.8,15.051c.133.842.808,3.652,1.859,3.807,8.051,1.189,10.38-2.833,10.866-4.338.2-.726.772-2.557.9-2.941.018-.052.032-.1.045-.155.075-.313.295-1.083.335-1.242.84-3.409,1.594-6.774,2.257-10.225l.218-1.176a1.819,1.819,0,0,1,1.807-1.48h.012c.842,0,1.727.044,2.567.087a9.2,9.2,0,0,1,1.107.09c.221.044.221.221.265.441a62.2,62.2,0,0,1-1.138,8.722c-3.133,18.646-7.882,17.571-9.753,18.531-.677.347-7.811.991-8.652.991Z" transform="translate(-160.086 -21.111)" fill="#ffcb05"/>
      <path id="Контур_340" data-name="Контур 340" d="M345.437,149.989a4.362,4.362,0,0,1,1.062.087c1.461.444,2.347,2.125,2.967,3.364a5.571,5.571,0,0,1,.575,1.639c0,.443-2.3.664-2.7.664-.488,0-.708-1.062-.885-1.372a1.792,1.792,0,0,0-.974-.841h-.132c-.93,0-1.417,1.992-1.55,2.656a.3.3,0,0,1-.266.177.442.442,0,0,0-.132-.045l-2.081-.93c-.177-.044-.266-.087-.266-.309a7.52,7.52,0,0,1,.531-1.594c.663-1.461,1.682-3.142,3.364-3.5Z" transform="translate(-162.045)" fill="#ffcb05"/>
      <path id="Контур_341" data-name="Контур 341" d="M394.856,149.989a4.362,4.362,0,0,1,1.062.087c1.461.444,2.347,2.125,2.967,3.364a5.571,5.571,0,0,1,.575,1.639c0,.443-2.3.664-2.7.664-.487,0-.708-1.062-.885-1.372a1.792,1.792,0,0,0-.974-.841h-.132c-.93,0-1.417,1.992-1.55,2.656a.3.3,0,0,1-.266.177.442.442,0,0,0-.132-.045l-2.081-.93c-.177-.044-.266-.087-.266-.309a7.52,7.52,0,0,1,.531-1.594c.663-1.461,1.682-3.142,3.364-3.5Z" transform="translate(-195.398)" fill="#ffcb05"/>
      <path id="Контур_342" data-name="Контур 342" d="M192.319,207.1l-.266-1.2-1.594-8.012c-.088-.665-.265-1.284-.4-1.9l-.4-1.948c-.487-2.081-1.062-4.116-1.372-6.2l-1.107-7.216c0-.132-.045-.354-.177-.4a26.652,26.652,0,0,0-5.047-.531c-.31,0-.443.221-.531.488-.088.221-.443,1.194-.488,1.372l-4.664,14.366-.386-1.883c-.486-2.081-1.062-4.116-1.372-6.2l-1.107-7.216c0-.132-.045-.354-.177-.4a26.649,26.649,0,0,0-5.046-.531c-.31,0-.443.221-.531.488-.089.221-.443,1.194-.488,1.372l-5.577,17.176c-.531,1.726-1.107,3.453-1.594,5.135-.267.84-.488,1.682-.753,2.524,0,.044-.177.486-.177.531v.087c0,.31.663.487.93.531a10.676,10.676,0,0,0,1.106.354c.089.045.31.09.31.133l2.921.665h.089c.4,0,.4-.531.442-.8.089-.264.354-1.15.4-1.239L169.827,192l.531,2.524.885,5,.488,2.479,1.124,4.869c0,.015-.013.04-.013.045v.087a.265.265,0,0,0,.078.151l.139.6c.045.222,0,.8.354.8a46.91,46.91,0,0,1,4.7.134h.09c.4,0,.4-.531.441-.8.09-.264.354-1.15.4-1.239L183.6,192l.531,2.524.886,5,.487,2.479,1.328,5.755c.045.222,0,.8.354.8,1.726-.266,3.453-.487,5.135-.665.089-.044.089-.132.089-.221A1.508,1.508,0,0,0,192.319,207.1Z" transform="translate(-39.225 -20.05)" fill="#98d8e2"/>
      <path id="Контур_343" data-name="Контур 343" d="M432.612,212.223l-2.92-.665c0-.044-.222-.088-.31-.133a10.681,10.681,0,0,1-1.106-.354c-.267-.044-.93-.221-.93-.531v-.087c0-.045.177-.488.177-.531.266-.842.486-1.683.753-2.524.486-1.682,1.062-3.409,1.594-5.135l5.577-17.176c.045-.177.4-1.151.487-1.372.088-.267.221-.487.531-.487a26.652,26.652,0,0,1,5.047.531c.132.044.177.266.177.4l1.107,7.216c.31,2.081.886,4.116,1.372,6.2l.4,1.948c.132.62.309,1.239.4,1.9l1.594,8.012.266,1.2a1.513,1.513,0,0,1,.088.575c0,.088,0,.177-.088.221-1.682.177-3.409.4-5.135.665-.354,0-.309-.575-.354-.8l-1.328-5.755-.487-2.479-.886-5-.531-2.524-4.559,14.652c-.045.09-.309.975-.4,1.24-.044.267-.044.8-.441.8Z" transform="translate(-220.282 -22.432)" fill="#f490b4"/>
      <path id="Контур_344" data-name="Контур 344" d="M138.741,328.259c-.354-.044-.309-.4-.354-.708-.132-2.212-.222-4.471-.266-6.684v-6.906c0-5.18,0-10.359.044-15.538l.045-1.373c0-.088-.088-.487.132-.487h.444l.929-.044h2.346l8.5.354c.444,0,2.923.133,3.055.531v.266a8.244,8.244,0,0,1-.222,1.461c-.132.752-.132,1.549-.221,2.346-.044.31-.088,1.062-.488,1.151h-.618c-2.746,0-5.489-.177-8.235-.177H143.7c0,2.656-.132,5.445-.132,8.146,0,.088,1.681.309,1.948.4a7.5,7.5,0,0,1,5.666,7.127c0,3.9-2.569,6.862-5.8,8.765a10.436,10.436,0,0,1-5.533,1.417A9.509,9.509,0,0,1,138.741,328.259Zm4.826-6.375c1.106-.309,2.389-1.018,2.389-2.346a3.255,3.255,0,0,0-2.389-3.054Z" transform="translate(-25.086 -98.892)" fill="#f47169"/>
      <path id="Контур_345" data-name="Контур 345" d="M204.478,328.089l-1.815-.044c-.4,0-3.5.044-3.851,0-.708,0-3.9-.177-4.6-.221-.177-.133-.132-.488-.132-.708a.334.334,0,0,1,.044-.222c0-1.284.177-2.568.221-3.851.045-.4.09-3.675.09-4.073.044-.488.132-2.347.132-2.613l1.24-14.918c.088-1.329.132-2.656.266-3.941.044-.177,0-.576.221-.62a4.215,4.215,0,0,1,.576-.088c0,.045.132.088.177.132a2.5,2.5,0,0,1,.531.045,7.407,7.407,0,0,1,.974.045l7.7.619c.486.045,1.24.177,1.726.267.222.044,1.86.044,1.86.531,0,.087-.133.354-.177.531-.177,1.46-.267,2.966-.444,4.471a.559.559,0,0,1-.619.531h-.133c-2.036-.177-4.116-.4-6.286-.665l-.045.177c-.177,2.17-.31,4.295-.575,6.419v.089l.487.044,4.825.267c.177,0,.488.177.488.354,0,.132-.133.221-.133.4a3.906,3.906,0,0,0-.089.708,30.9,30.9,0,0,0-.132,3.5c-.089.575-.133,1.062-.841,1.062-.177,0-.31-.09-.488-.09-1.018-.132-2.035-.177-3.054-.264-.442,0-.841-.09-1.283-.09H201.2l-.044.09c-.09,1.9-.267,3.762-.444,5.666v.221l.089.044,4.781.4c.752.045.8.222.841.974.045.575.045,1.151.045,1.727,0,.708-.045,1.417-.045,2.125v.619l.045.177c0,.133-.045.354-.222.354C205.629,328.266,205.054,328.134,204.478,328.089Z" transform="translate(-62.846 -99.076)" fill="#f490b4"/>
      <path id="Контур_346" data-name="Контур 346" d="M251.1,326.739a9.43,9.43,0,0,0-.045-1.594v-8.456c-.222-3.187-.088-6.508-.088-9.65l-.044-3.276V299.47c0-2.125-.134-4.517.087-6.641.089-.265.222-.177.4-.221a5.891,5.891,0,0,0,.84-.221,15.209,15.209,0,0,1,2.037-.089c5.533,0,11.908,3.808,12.881,9.607a11.762,11.762,0,0,1,.31,2.125,12.436,12.436,0,0,1-.177,1.771,11,11,0,0,1-2.389,6.552,13.432,13.432,0,0,1-2.435,2.567,19.917,19.917,0,0,1-4.869,2.391c-.132,0-.132.132-.132.266v8.633c0,.221-.045.441-.267.486-1.992-.045-3.939.132-5.931.132C251.188,326.826,251.145,326.826,251.1,326.739Zm6.552-16.114a5.754,5.754,0,0,1,.531-.267,7.277,7.277,0,0,0,1.637-1.417,5.165,5.165,0,0,0,1.417-3.585,8.4,8.4,0,0,0-.4-2.3c-.576-1.948-1.329-3.5-3.321-4.206v.31c0,2.479.134,4.958.134,7.481,0,1.329-.045,2.656-.045,3.985Z" transform="translate(-101.189 -96.043)" fill="#ffcb05"/>
      <path id="Контур_347" data-name="Контур 347" d="M310.333,326.739a9.468,9.468,0,0,0-.044-1.594v-8.456c-.221-3.187-.089-6.508-.089-9.65l-.045-3.276V299.47a66.371,66.371,0,0,1,.089-6.641c.087-.265.221-.177.4-.221a5.988,5.988,0,0,0,.842-.221,15.165,15.165,0,0,1,2.035-.089c5.534,0,11.909,3.808,12.883,9.607a11.678,11.678,0,0,1,.31,2.125,12.773,12.773,0,0,1-.177,1.771,11,11,0,0,1-2.391,6.552,13.388,13.388,0,0,1-2.434,2.567,19.894,19.894,0,0,1-4.869,2.391c-.133,0-.133.132-.133.266v8.633c0,.221-.044.441-.265.486-1.993-.045-3.94.132-5.933.132C310.422,326.826,310.377,326.826,310.333,326.739Zm6.552-16.114a5.933,5.933,0,0,1,.531-.267,7.233,7.233,0,0,0,1.638-1.417,5.16,5.16,0,0,0,1.417-3.585,8.357,8.357,0,0,0-.4-2.3c-.575-1.948-1.327-3.5-3.319-4.206v.31c0,2.479.132,4.958.132,7.481,0,1.329-.044,2.656-.044,3.985Z" transform="translate(-141.165 -96.043)" fill="#98d8e2"/>
      <path id="Контур_348" data-name="Контур 348" d="M376.684,330.129a3.909,3.909,0,0,1-1.24-.31c-4.073-1.5-5.4-8.279-5.622-12l-.486-8.941v-1.107c0-1.638.045-3.319.088-5,.044-.531.31-.531.8-.575.753-.044,1.461-.089,2.213-.089a21.525,21.525,0,0,1,2.391.089c.132,0,.309.133.309.266,0,.486-.132,1.018-.132,1.5a106.819,106.819,0,0,0,.8,15.051c.133.842.8,3.807,1.859,3.807a1.121,1.121,0,0,0,.531-.222,9.713,9.713,0,0,0,2.3-4.117c.222-.8.885-2.922.93-3.01.044-.221.31-1.151.354-1.328.841-3.409,1.594-6.774,2.257-10.225l.443-2.392c.266-.354,1.2-.264,1.594-.264.842,0,1.727.044,2.567.087a9.2,9.2,0,0,1,1.107.09c.221.044.221.221.265.441,0,2.524.133,5.091.354,7.614l.576,14.255c.177,1.815.266,3.762.266,5.577,0,.354-.708.31-.929.354-1.417.133-2.833.222-4.25.222a.557.557,0,0,1-.487-.266c-.133-2.081-.133-4.161-.354-6.241a.656.656,0,0,1-.088.177,12.269,12.269,0,0,1-4.295,5.489,4.425,4.425,0,0,1-2.3,1.062Z" transform="translate(-181.132 -102.089)" fill="#4b5eaa"/>
    </g>
  </g>
</svg>
