<?xml version="1.0" encoding="utf-8"?>
<!-- Generator: Adobe Illustrator 26.2.1, SVG Export Plug-In . SVG Version: 6.00 Build 0)  -->
<svg version="1.1" xmlns="http://www.w3.org/2000/svg" xmlns:xlink="http://www.w3.org/1999/xlink" x="0px" y="0px"
	 viewBox="0 0 432 349.6" style="enable-background:new 0 0 432 349.6;" xml:space="preserve">
<style type="text/css">
	.st0{fill:#9484BE;}
</style>
<g id="Layer_1">
	<g>
		<path class="st0" d="M26,267.6c-8.9,0.9-16.5-5.1-16.5-15c0-9.8,7.6-15.8,16.5-14.9C43.7,239.5,43.7,265.8,26,267.6 M43.3,229.7
			c-2.5,0-4.5,2-4.5,4.5v1.6c-3.2-4.3-9.3-6.8-15.3-6.8c-13,0-23.5,8.5-23.5,23.6c0,15.4,10,23.9,23.3,23.9c5.1,0,12.2-2.3,15.6-7.2
			l-0.1,2v2.4c0,0.8,0.7,1.5,1.5,1.5h6c0.8,0,1.5-0.7,1.5-1.5v-39.5C47.7,231.7,45.7,229.7,43.3,229.7"/>
		<path class="st0" d="M142.5,267.6c-8.9,0.9-16.5-5.1-16.5-15c0-9.8,7.6-15.8,16.5-14.9C160.2,239.5,160.2,265.8,142.5,267.6
			 M159.8,229.7c-2.5,0-4.5,2-4.5,4.5v1.6c-3.2-4.3-9.3-6.8-15.3-6.8c-13,0-23.5,8.5-23.5,23.6c0,15.4,10,23.9,23.3,23.9
			c5.1,0,12.2-2.3,15.6-7.2l-0.1,2v2.4c0,0.8,0.7,1.5,1.5,1.5h6c0.8,0,1.5-0.7,1.5-1.5v-39.5C164.3,231.7,162.2,229.7,159.8,229.7"
			/>
		<path class="st0" d="M308.7,267.6c-8.9,0.9-16.5-5.1-16.5-15c0-9.8,7.6-15.8,16.5-14.9C326.5,239.5,326.5,265.8,308.7,267.6
			 M326,229.7c-2.5,0-4.5,2-4.5,4.5v1.6c-3.2-4.3-9.3-6.8-15.3-6.8c-13,0-23.5,8.5-23.5,23.6c0,15.4,10,23.9,23.3,23.9
			c5.1,0,12.2-2.3,15.6-7.2l-0.1,2v2.4c0,0.8,0.7,1.5,1.5,1.5h6c0.8,0,1.5-0.7,1.5-1.5v-39.5C330.5,231.7,328.5,229.7,326,229.7"/>
		<path class="st0" d="M395.9,229.1c-6.2,0-11.9,2.3-15.5,9c0,0,0,0,0,0c-2.8-6.7-8.4-9-14.3-9c-4.4,0-9.9,1.5-12.7,5.7v-0.4
			c0-2.5-2-4.5-4.5-4.5c-2.5,0-4.5,2-4.5,4.5v39.5c0,0.8,0.7,1.5,1.5,1.5h6c0.8,0,1.5-0.7,1.5-1.5v-23.6c0-6.5,4.1-12,10.4-12.3
			c6.1-0.3,11.2,4.7,11.2,10.8v25c0,0.8,0.7,1.5,1.5,1.5h6.6c0.8,0,1.5-0.7,1.5-1.5l0-24.5c0-6.4,5.4-11.7,11.8-11.3
			c6.1,0.4,9.3,5.6,9.3,12l0,23.7c0,0.8,0.7,1.5,1.5,1.5h6.6c0.8,0,1.5-0.7,1.5-1.5l0-23.7C415.1,236.9,408.5,229.1,395.9,229.1"/>
		<path class="st0" d="M275.9,232c-2.6-1.8-6.3-3.3-10.1-3.3c-4.7,0-10,1.1-13.3,6.4v-0.8c0-2.5-2-4.5-4.5-4.5c-2.5,0-4.5,2-4.5,4.5
			v39.5c0,0.8,0.7,1.5,1.5,1.5h6c0.8,0,1.5-0.7,1.5-1.5v-9.2v0v-13.8c0-8.4,5.7-12.4,12.3-12.4c2.8,0,4.7,0.5,6.4,1.6
			c0.9,0.5,2,0.2,2.5-0.7l2.8-5.3C276.8,233.3,276.6,232.4,275.9,232"/>
		<path class="st0" d="M205,265.6c-8.2,0-15-4.9-15-13.9c0-9.5,7.3-14,15-14c7.8,0,14.7,5.1,14.7,14
			C219.7,259.9,213.5,265.6,205,265.6 M217.2,269.4c8.1-3.2,12.1-9.6,12.1-17.6c0-5.6-1.7-9.6-5.5-14l2.4-3c1.5-1.9,1.2-4.6-0.6-6.1
			c-1.9-1.5-4.6-1.2-6.1,0.6l-2.2,2.7c-3.1-2.2-8.5-3.1-12.2-3.1c-12.3,0-24.6,7.6-24.6,22.8c0,14.1,9.9,22.6,24.6,22.6
			c8.5,0,14.3,3.5,14.3,9.8s-7.5,9.3-14.5,9.3c-7.6,0-14.7-3.9-14.5-10.9c0-2.6-2.1-4.7-4.7-4.7c-2.6,0-4.7,2.1-4.7,4.7
			c-0.5,12.6,9.2,20.1,23.9,20.1c12.2,0,24.3-6.2,24.3-18.5C229.2,278.8,226.5,272.6,217.2,269.4"/>
		<path class="st0" d="M95.8,273.7c0,0.8,0.7,1.5,1.5,1.5h6.6c0.8,0,1.5-0.7,1.5-1.5v-22.8c0-14.2-8.6-21.9-19.5-21.9
			c-5.8,0-10.7,2.4-15,7.1v-2c0-2.5-2-4.5-4.5-4.5c-2.5,0-4.5,2-4.5,4.5v39.5c0,0.8,0.7,1.5,1.5,1.5h6c0.8,0,1.5-0.7,1.5-1.5v-22.2
			c0-7.3,5-13.6,12.4-13.7c6.9-0.1,12.5,5.6,12.5,12.5V273.7z"/>
		<path class="st0" d="M259.2,179.8C247.3,163,227.8,152,205.7,152c-22.1,0-41.6,11-53.5,27.8h-19.9c13.7-26.6,41.4-44.8,73.4-44.8
			s59.7,18.2,73.4,44.8H259.2z M191.7,102.3l14-33l14,33c-4.6-0.5-9.3-0.8-14-0.8C200.9,101.4,196.3,101.7,191.7,102.3 M205.7,109.7
			c46.3,0,85.8,29.2,101,70.1h-18.5c-14.3-31.3-45.9-53.1-82.6-53.1c-36.7,0-68.3,21.8-82.6,53.1h-18.5
			C119.9,138.9,159.4,109.7,205.7,109.7 M177.1,8.3h37.5c11.9,0,22.6,7.1,27.2,18l46.7,109.9c-15.8-16.1-36.3-27.6-59.2-32.3
			l-19.8-46.8c-0.7-1.5-2.2-2.5-3.8-2.5c-1.7,0-3.2,1-3.8,2.5L182,103.9c-22.9,4.7-43.4,16.3-59.2,32.3L177.1,8.3z M316.7,181.3
			L249.5,23.1c-5.9-14-19.6-23-34.8-23h-38.3c-2.9,0-5.4,1.7-6.6,4.3l-75.1,177c-0.8,2-0.3,4.3,1.4,5.7c0.9,0.7,2,1.1,3.2,1.1h47.9
			h7.1c1.4,0,2.8-0.7,3.6-1.9l0,0c0.1-0.2,0.2-0.3,0.3-0.5c0.4-0.6,0.8-1.2,1.2-1.8l0.1-0.1c1-1.4,2.1-2.7,3.2-4
			c10.5-11.9,25.8-19.5,43-19.5c17.1,0,32.5,7.6,43,19.5c1.1,1.3,2.2,2.6,3.2,4c0,0,0,0.1,0.1,0.1c0.4,0.6,0.8,1.2,1.3,1.8l0.3,0.4
			l0,0c0.8,1.2,2.1,1.9,3.6,1.9h7.1H312c1.4,0,2.7-0.5,3.7-1.5C317.1,185.2,317.4,183.1,316.7,181.3"/>
		<path class="st0" d="M205.7,349.6c-14,0-27.3-4.3-38.6-12.6c-2-1.5-2.5-4.3-1-6.3c1.5-2,4.3-2.5,6.3-1
			c9.7,7.1,21.3,10.8,33.3,10.8c12.1,0,23.6-3.7,33.3-10.8c2-1.5,4.8-1,6.3,1c1.5,2,1,4.8-1,6.3
			C233.1,345.2,219.7,349.6,205.7,349.6"/>
		<path class="st0" d="M425.9,235.6c0.8,0,1.2-0.6,1.2-1.1c0-0.6-0.4-1.1-1.2-1.1H424v2.3H425.9z M426.6,236.5l2,2.3v0.3h-1.4
			l-2-2.4H424v2.4h-1.3v-7h3.2c1.7,0,2.5,1.2,2.5,2.3C428.4,235.3,427.8,236.3,426.6,236.5 M430.6,235.7c0-3.1-1.9-5.5-5.3-5.5
			c-3.3,0-5.3,2.4-5.3,5.5c0,3.1,2,5.5,5.3,5.5C428.7,241.2,430.6,238.7,430.6,235.7 M432,235.7c0,3.7-2.4,6.8-6.7,6.8
			c-4.3,0-6.7-3.1-6.7-6.8c0-3.7,2.4-6.8,6.7-6.8C429.6,228.9,432,232,432,235.7"/>
	</g>
</g>
<g id="Layer_2">
</g>
</svg>
